<?xml version="1.0" encoding="UTF-8"?>
<svg width="700pt" height="700pt" version="1.1" viewBox="0 0 700 700" xmlns="http://www.w3.org/2000/svg" xmlns:xlink="http://www.w3.org/1999/xlink">
 <defs>
  <symbol id="w" overflow="visible">
   <path d="m18.766-1.125c-0.96875 0.5-1.9805 0.875-3.0312 1.125-1.043 0.25781-2.1367 0.39062-3.2812 0.39062-3.3984 0-6.0898-0.94531-8.0781-2.8438-1.9922-1.9062-2.9844-4.4844-2.9844-7.7344 0-3.2578 0.99219-5.8359 2.9844-7.7344 1.9883-1.9062 4.6797-2.8594 8.0781-2.8594 1.1445 0 2.2383 0.13281 3.2812 0.39062 1.0508 0.25 2.0625 0.625 3.0312 1.125v4.2188c-0.98047-0.65625-1.9453-1.1406-2.8906-1.4531-0.94922-0.3125-1.9492-0.46875-3-0.46875-1.875 0-3.3516 0.60547-4.4219 1.8125-1.0742 1.1992-1.6094 2.8555-1.6094 4.9688 0 2.1055 0.53516 3.7617 1.6094 4.9688 1.0703 1.1992 2.5469 1.7969 4.4219 1.7969 1.0508 0 2.0508-0.14844 3-0.45312 0.94531-0.3125 1.9102-0.80078 2.8906-1.4688z"/>
  </symbol>
  <symbol id="a" overflow="visible">
   <path d="m13.734-11.141c-0.4375-0.19531-0.87109-0.34375-1.2969-0.4375-0.41797-0.10156-0.83984-0.15625-1.2656-0.15625-1.2617 0-2.2305 0.40625-2.9062 1.2188-0.67969 0.80469-1.0156 1.9531-1.0156 3.4531v7.0625h-4.8906v-15.312h4.8906v2.5156c0.625-1 1.3438-1.7266 2.1562-2.1875 0.82031-0.46875 1.8008-0.70312 2.9375-0.70312 0.16406 0 0.34375 0.011719 0.53125 0.03125 0.19531 0.011719 0.47656 0.039062 0.84375 0.078125z"/>
  </symbol>
  <symbol id="b" overflow="visible">
   <path d="m17.641-7.7031v1.4062h-11.453c0.125 1.1484 0.53906 2.0078 1.25 2.5781 0.70703 0.57422 1.7031 0.85938 2.9844 0.85938 1.0312 0 2.082-0.14844 3.1562-0.45312 1.082-0.3125 2.1914-0.77344 3.3281-1.3906v3.7656c-1.1562 0.4375-2.3125 0.76562-3.4688 0.98438-1.1562 0.22656-2.3125 0.34375-3.4688 0.34375-2.7734 0-4.9297-0.70312-6.4688-2.1094-1.5312-1.4062-2.2969-3.3789-2.2969-5.9219 0-2.5 0.75391-4.4609 2.2656-5.8906 1.5078-1.4375 3.582-2.1562 6.2188-2.1562 2.4062 0 4.332 0.73047 5.7812 2.1875 1.4453 1.4492 2.1719 3.3828 2.1719 5.7969zm-5.0312-1.625c0-0.92578-0.27344-1.6719-0.8125-2.2344-0.54297-0.57031-1.25-0.85938-2.125-0.85938-0.94922 0-1.7188 0.26562-2.3125 0.79688s-0.96484 1.2969-1.1094 2.2969z"/>
  </symbol>
  <symbol id="e" overflow="visible">
   <path d="m9.2188-6.8906c-1.0234 0-1.793 0.17188-2.3125 0.51562-0.51172 0.34375-0.76562 0.85547-0.76562 1.5312 0 0.625 0.20703 1.1172 0.625 1.4688 0.41406 0.34375 0.98828 0.51562 1.7188 0.51562 0.92578 0 1.7031-0.32812 2.3281-0.98438 0.63281-0.66406 0.95312-1.4922 0.95312-2.4844v-0.5625zm7.4688-1.8438v8.7344h-4.9219v-2.2656c-0.65625 0.92969-1.3984 1.6055-2.2188 2.0312-0.82422 0.41406-1.8242 0.625-3 0.625-1.5859 0-2.8711-0.45703-3.8594-1.375-0.99219-0.92578-1.4844-2.1289-1.4844-3.6094 0-1.7891 0.61328-3.1016 1.8438-3.9375 1.2383-0.84375 3.1797-1.2656 5.8281-1.2656h2.8906v-0.39062c0-0.76953-0.30859-1.332-0.92188-1.6875-0.61719-0.36328-1.5703-0.54688-2.8594-0.54688-1.0547 0-2.0312 0.10547-2.9375 0.3125-0.89844 0.21094-1.7305 0.52344-2.5 0.9375v-3.7344c1.0391-0.25 2.0859-0.44141 3.1406-0.57812 1.0625-0.13281 2.125-0.20312 3.1875-0.20312 2.7578 0 4.75 0.54688 5.9688 1.6406 1.2266 1.0859 1.8438 2.8555 1.8438 5.3125z"/>
  </symbol>
  <symbol id="d" overflow="visible">
   <path d="m7.7031-19.656v4.3438h5.0469v3.5h-5.0469v6.5c0 0.71094 0.14062 1.1875 0.42188 1.4375s0.83594 0.375 1.6719 0.375h2.5156v3.5h-4.1875c-1.9375 0-3.3125-0.39844-4.125-1.2031-0.80469-0.8125-1.2031-2.1797-1.2031-4.1094v-6.5h-2.4219v-3.5h2.4219v-4.3438z"/>
  </symbol>
  <symbol id="j" overflow="visible">
   <path d="m12.766-13.078v-8.2031h4.9219v21.281h-4.9219v-2.2188c-0.66797 0.90625-1.4062 1.5703-2.2188 1.9844s-1.7578 0.625-2.8281 0.625c-1.8867 0-3.4336-0.75-4.6406-2.25-1.2109-1.5-1.8125-3.4258-1.8125-5.7812 0-2.3633 0.60156-4.2969 1.8125-5.7969 1.207-1.5 2.7539-2.25 4.6406-2.25 1.0625 0 2 0.21484 2.8125 0.64062 0.82031 0.42969 1.5664 1.0859 2.2344 1.9688zm-3.2188 9.9219c1.0391 0 1.8359-0.37891 2.3906-1.1406 0.55078-0.76953 0.82812-1.8828 0.82812-3.3438 0-1.457-0.27734-2.5664-0.82812-3.3281-0.55469-0.76953-1.3516-1.1562-2.3906-1.1562-1.043 0-1.8398 0.38672-2.3906 1.1562-0.55469 0.76172-0.82812 1.8711-0.82812 3.3281 0 1.4609 0.27344 2.5742 0.82812 3.3438 0.55078 0.76172 1.3477 1.1406 2.3906 1.1406z"/>
  </symbol>
  <symbol id="f" overflow="visible">
   <path d="m10.5-3.1562c1.0508 0 1.8516-0.37891 2.4062-1.1406 0.55078-0.76953 0.82812-1.8828 0.82812-3.3438 0-1.457-0.27734-2.5664-0.82812-3.3281-0.55469-0.76953-1.3555-1.1562-2.4062-1.1562-1.0547 0-1.8594 0.38672-2.4219 1.1562-0.55469 0.77344-0.82812 1.8828-0.82812 3.3281 0 1.4492 0.27344 2.5586 0.82812 3.3281 0.5625 0.77344 1.3672 1.1562 2.4219 1.1562zm-3.25-9.9219c0.67578-0.88281 1.4219-1.5391 2.2344-1.9688 0.82031-0.42578 1.7656-0.64062 2.8281-0.64062 1.8945 0 3.4453 0.75 4.6562 2.25 1.207 1.5 1.8125 3.4336 1.8125 5.7969 0 2.3555-0.60547 4.2812-1.8125 5.7812-1.2109 1.5-2.7617 2.25-4.6562 2.25-1.0625 0-2.0078-0.21094-2.8281-0.625-0.8125-0.42578-1.5586-1.0859-2.2344-1.9844v2.2188h-4.8906v-21.281h4.8906z"/>
  </symbol>
  <symbol id="i" overflow="visible">
   <path d="m0.34375-15.312h4.8906l4.125 10.391 3.5-10.391h4.8906l-6.4375 16.766c-0.64844 1.6953-1.4023 2.8828-2.2656 3.5625-0.86719 0.6875-2 1.0312-3.4062 1.0312h-2.8438v-3.2188h1.5312c0.83203 0 1.4375-0.13672 1.8125-0.40625 0.38281-0.26172 0.67969-0.73047 0.89062-1.4062l0.14062-0.42188z"/>
  </symbol>
  <symbol id="h" overflow="visible">
   <path d="m2.5781-20.406h5.25v16.422h9.25v3.9844h-14.5z"/>
  </symbol>
  <symbol id="v" overflow="visible">
   <path d="m2.3594-21.281h4.8906v21.281h-4.8906z"/>
  </symbol>
  <symbol id="g" overflow="visible">
   <path d="m2.1875-5.9688v-9.3438h4.9219v1.5312c0 0.83594-0.007813 1.875-0.015625 3.125-0.011719 1.25-0.015625 2.0859-0.015625 2.5 0 1.2422 0.03125 2.1328 0.09375 2.6719 0.070313 0.54297 0.17969 0.93359 0.32812 1.1719 0.20703 0.32422 0.47266 0.57422 0.79688 0.75 0.32031 0.16797 0.69141 0.25 1.1094 0.25 1.0195 0 1.8203-0.39062 2.4062-1.1719 0.58203-0.78125 0.875-1.8672 0.875-3.2656v-7.5625h4.8906v15.312h-4.8906v-2.2188c-0.74219 0.89844-1.5234 1.5586-2.3438 1.9844-0.82422 0.41406-1.7344 0.625-2.7344 0.625-1.7617 0-3.1055-0.53906-4.0312-1.625-0.92969-1.082-1.3906-2.6602-1.3906-4.7344z"/>
  </symbol>
  <symbol id="u" overflow="visible">
   <path d="m2.3594-15.312h4.8906v15.312h-4.8906zm0-5.9688h4.8906v4h-4.8906z"/>
  </symbol>
  <symbol id="t" overflow="visible">
   <path d="m14.312-14.828v3.7188c-1.043-0.4375-2.0547-0.76562-3.0312-0.98438-0.98047-0.21875-1.9023-0.32812-2.7656-0.32812-0.92969 0-1.6211 0.11719-2.0781 0.34375-0.44922 0.23047-0.67188 0.58984-0.67188 1.0781 0 0.38672 0.17188 0.68359 0.51562 0.89062 0.34375 0.21094 0.95703 0.36719 1.8438 0.46875l0.85938 0.125c2.5078 0.32422 4.1953 0.85156 5.0625 1.5781 0.86328 0.73047 1.2969 1.8711 1.2969 3.4219 0 1.6367-0.60547 2.8672-1.8125 3.6875-1.1992 0.8125-2.9922 1.2188-5.375 1.2188-1.0234 0-2.0742-0.078125-3.1562-0.23438-1.0742-0.15625-2.1797-0.39453-3.3125-0.71875v-3.7188c0.96875 0.48047 1.9609 0.83984 2.9844 1.0781 1.0312 0.23047 2.0781 0.34375 3.1406 0.34375 0.95703 0 1.6758-0.12891 2.1562-0.39062 0.47656-0.26953 0.71875-0.66406 0.71875-1.1875 0-0.4375-0.16797-0.75781-0.5-0.96875-0.33594-0.21875-0.99609-0.38281-1.9844-0.5l-0.85938-0.10938c-2.1797-0.26953-3.7031-0.77344-4.5781-1.5156-0.875-0.73828-1.3125-1.8594-1.3125-3.3594 0-1.625 0.55078-2.8281 1.6562-3.6094 1.1133-0.78906 2.8203-1.1875 5.125-1.1875 0.89453 0 1.8359 0.074219 2.8281 0.21875 1 0.13672 2.082 0.35156 3.25 0.64062z"/>
  </symbol>
  <symbol id="s" overflow="visible">
   <path d="m2.5781-20.406h5.25v20.406h-5.25z"/>
  </symbol>
  <symbol id="c" overflow="visible">
   <path d="m9.6406-12.188c-1.0859 0-1.9141 0.39062-2.4844 1.1719-0.57422 0.78125-0.85938 1.9062-0.85938 3.375s0.28516 2.5938 0.85938 3.375c0.57031 0.77344 1.3984 1.1562 2.4844 1.1562 1.0625 0 1.875-0.38281 2.4375-1.1562 0.57031-0.78125 0.85938-1.9062 0.85938-3.375s-0.28906-2.5938-0.85938-3.375c-0.5625-0.78125-1.375-1.1719-2.4375-1.1719zm0-3.5c2.6328 0 4.6914 0.71484 6.1719 2.1406 1.4766 1.418 2.2188 3.3867 2.2188 5.9062 0 2.5117-0.74219 4.4805-2.2188 5.9062-1.4805 1.418-3.5391 2.125-6.1719 2.125-2.6484 0-4.7148-0.70703-6.2031-2.125-1.4922-1.4258-2.2344-3.3945-2.2344-5.9062 0-2.5195 0.74219-4.4883 2.2344-5.9062 1.4883-1.4258 3.5547-2.1406 6.2031-2.1406z"/>
  </symbol>
  <symbol id="r" overflow="visible">
   <path d="m12.422-21.281v3.2188h-2.7031c-0.6875 0-1.1719 0.125-1.4531 0.375-0.27344 0.25-0.40625 0.6875-0.40625 1.3125v1.0625h4.1875v3.5h-4.1875v11.812h-4.8906v-11.812h-2.4375v-3.5h2.4375v-1.0625c0-1.6641 0.46094-2.8984 1.3906-3.7031 0.92578-0.80078 2.3672-1.2031 4.3281-1.2031z"/>
  </symbol>
  <symbol id="q" overflow="visible">
   <path d="m16.547-12.766c0.61328-0.94531 1.3477-1.6719 2.2031-2.1719 0.85156-0.5 1.7891-0.75 2.8125-0.75 1.7578 0 3.0977 0.54688 4.0156 1.6406 0.92578 1.0859 1.3906 2.6562 1.3906 4.7188v9.3281h-4.9219v-7.9844-0.35938c0.007813-0.13281 0.015625-0.32031 0.015625-0.5625 0-1.082-0.16406-1.8633-0.48438-2.3438-0.3125-0.48828-0.82422-0.73438-1.5312-0.73438-0.92969 0-1.6484 0.38672-2.1562 1.1562-0.51172 0.76172-0.77344 1.8672-0.78125 3.3125v7.5156h-4.9219v-7.9844c0-1.6953-0.14844-2.7852-0.4375-3.2656-0.29297-0.48828-0.8125-0.73438-1.5625-0.73438-0.9375 0-1.6641 0.38672-2.1719 1.1562-0.51172 0.76172-0.76562 1.8594-0.76562 3.2969v7.5312h-4.9219v-15.312h4.9219v2.2344c0.60156-0.86328 1.2891-1.5156 2.0625-1.9531 0.78125-0.4375 1.6406-0.65625 2.5781-0.65625 1.0625 0 2 0.25781 2.8125 0.76562 0.8125 0.51172 1.4258 1.2305 1.8438 2.1562z"/>
  </symbol>
  <symbol id="p" overflow="visible">
   <path d="m17.75-9.3281v9.3281h-4.9219v-7.1094c0-1.3438-0.03125-2.2656-0.09375-2.7656s-0.16797-0.86719-0.3125-1.1094c-0.1875-0.3125-0.44922-0.55469-0.78125-0.73438-0.32422-0.17578-0.69531-0.26562-1.1094-0.26562-1.0234 0-1.8242 0.39844-2.4062 1.1875-0.58594 0.78125-0.875 1.8711-0.875 3.2656v7.5312h-4.8906v-21.281h4.8906v8.2031c0.73828-0.88281 1.5195-1.5391 2.3438-1.9688 0.83203-0.42578 1.75-0.64062 2.75-0.64062 1.7695 0 3.1133 0.54688 4.0312 1.6406 0.91406 1.0859 1.375 2.6562 1.375 4.7188z"/>
  </symbol>
  <symbol id="o" overflow="visible">
   <path d="m2.5781-20.406h5.875l7.4219 14v-14h4.9844v20.406h-5.875l-7.4219-14v14h-4.9844z"/>
  </symbol>
  <symbol id="n" overflow="visible">
   <path d="m17.75-9.3281v9.3281h-4.9219v-7.1406c0-1.3203-0.03125-2.2344-0.09375-2.7344s-0.16797-0.86719-0.3125-1.1094c-0.1875-0.3125-0.44922-0.55469-0.78125-0.73438-0.32422-0.17578-0.69531-0.26562-1.1094-0.26562-1.0234 0-1.8242 0.39844-2.4062 1.1875-0.58594 0.78125-0.875 1.8711-0.875 3.2656v7.5312h-4.8906v-15.312h4.8906v2.2344c0.73828-0.88281 1.5195-1.5391 2.3438-1.9688 0.83203-0.42578 1.75-0.64062 2.75-0.64062 1.7695 0 3.1133 0.54688 4.0312 1.6406 0.91406 1.0859 1.375 2.6562 1.375 4.7188z"/>
  </symbol>
  <symbol id="m" overflow="visible">
   <path d="m2.5781-20.406h8.7344c2.5938 0 4.582 0.57812 5.9688 1.7344 1.3945 1.1484 2.0938 2.7891 2.0938 4.9219 0 2.1367-0.69922 3.7812-2.0938 4.9375-1.3867 1.1562-3.375 1.7344-5.9688 1.7344h-3.4844v7.0781h-5.25zm5.25 3.8125v5.7031h2.9219c1.0195 0 1.8047-0.25 2.3594-0.75 0.5625-0.5 0.84375-1.2031 0.84375-2.1094 0-0.91406-0.28125-1.6172-0.84375-2.1094-0.55469-0.48828-1.3398-0.73438-2.3594-0.73438z"/>
  </symbol>
  <symbol id="l" overflow="visible">
   <path d="m2.3594-15.312h4.8906v15.031c0 2.0508-0.49609 3.6172-1.4844 4.7031-0.98047 1.082-2.4062 1.625-4.2812 1.625h-2.4219v-3.2188h0.85938c0.92578 0 1.5625-0.21094 1.9062-0.625 0.35156-0.41797 0.53125-1.2461 0.53125-2.4844zm0-5.9688h4.8906v4h-4.8906z"/>
  </symbol>
  <symbol id="k" overflow="visible">
   <path d="m14.719-14.828v3.9844c-0.65625-0.45703-1.3242-0.79688-2-1.0156-0.66797-0.21875-1.3594-0.32812-2.0781-0.32812-1.3672 0-2.4336 0.40234-3.2031 1.2031-0.76172 0.79297-1.1406 1.9062-1.1406 3.3438 0 1.4297 0.37891 2.543 1.1406 3.3438 0.76953 0.79297 1.8359 1.1875 3.2031 1.1875 0.75781 0 1.4844-0.10938 2.1719-0.32812 0.6875-0.22656 1.3203-0.56641 1.9062-1.0156v4c-0.76172 0.28125-1.5391 0.48828-2.3281 0.625-0.78125 0.14453-1.5742 0.21875-2.375 0.21875-2.7617 0-4.9219-0.70703-6.4844-2.125-1.5547-1.4141-2.3281-3.3828-2.3281-5.9062 0-2.5312 0.77344-4.5039 2.3281-5.9219 1.5625-1.4141 3.7227-2.125 6.4844-2.125 0.80078 0 1.5938 0.074219 2.375 0.21875 0.78125 0.13672 1.5547 0.35156 2.3281 0.64062z"/>
  </symbol>
 </defs>
 <g>
  <path d="m445 148.37c0-0.042969-0.042969-0.074219-0.050781-0.11719-0.003907-0.042968 0.027343-0.085937 0.015625-0.125l-6.7695-25.363c-0.027343-0.09375-0.11719-0.12891-0.15625-0.21094-0.042968-0.078126-0.023437-0.16797-0.085937-0.23438l-9.7656-11.176c-0.054688-0.0625-0.13281-0.050781-0.19531-0.10156-0.054688-0.042969-0.066407-0.125-0.13281-0.15625l-22.77-11.703-7.7422-9.582c-0.015625-0.023437-0.050781-0.015624-0.066406-0.039062-0.023438-0.023438-0.011719-0.050781-0.035156-0.074219l-3.1484-2.9922c-0.023437-0.023438-0.0625-0.011719-0.085937-0.035156-0.12891-0.11328-0.28125-0.125-0.4375-0.16406-0.10547-0.023437-0.18359-0.10547-0.29297-0.10547-0.003906 0-0.011719-0.003906-0.015625-0.003906l-5.5547 0.28125-2.8164-3.7578-1.9258-6.9648 0.027344-0.16406c0.078125 0.023438 0.11719 0.09375 0.20312 0.09375h0.039062c0.21094 0 0.42578-0.0625 0.61719-0.18359 0.035156-0.023438 0.035156-0.066407 0.0625-0.089844 0.11719-0.09375 0.16406-0.22266 0.24219-0.35156 0.066406-0.125 0.14062-0.22266 0.15625-0.36328 0.003906-0.035156 0.039063-0.054688 0.039063-0.089844l0.23438-6.6875c0.11719-0.074218 0.19141-0.15234 0.28125-0.26172 0.074218-0.10156 0.11719-0.17969 0.15625-0.29688 0.027344-0.074218 0.10156-0.11719 0.11328-0.19531l1.3789-9.7734 2.3008-2.7344c0.015626-0.015626 0.003907-0.039063 0.015626-0.050782 0.011718-0.015625 0.035156-0.011718 0.039062-0.023437l3.1484-4.4062c0.039062-0.050781 0.015624-0.11719 0.039062-0.16406 0.042969-0.078125 0.11719-0.11719 0.13281-0.20703l1.7344-6.7812c0.015624-0.054687-0.027344-0.10547-0.023438-0.15625s0.0625-0.09375 0.054688-0.14453l-0.15234-7.0977c0-0.050782-0.042969-0.085938-0.050782-0.12891-0.003906-0.042969 0.027344-0.085937 0.015626-0.125l-1.418-5.3477c-0.015625-0.054687-0.078125-0.078125-0.10156-0.12891-0.023437-0.050781 0.003906-0.11328-0.027344-0.15625l-7.0898-11.809c-0.035157-0.054687-0.10156-0.054687-0.13281-0.10547-0.042968-0.050781-0.035156-0.11719-0.085937-0.16406l-5.0352-4.4062c-0.0625-0.054688-0.14453-0.035156-0.21094-0.074219s-0.09375-0.11719-0.16797-0.14453l-5.2031-1.7344c-0.10547-0.039063-0.20312 0.027343-0.3125 0.023437-0.11719-0.003906-0.21875-0.078125-0.33594-0.042968l-3.7031 0.99219-2.6133-1.2422c-0.015626-0.003907-0.035157 0.003906-0.050782-0.003907-0.015625-0.003906-0.015625-0.023437-0.035156-0.027343l-5.3555-2.0391c-0.074219-0.035156-0.14062 0.015625-0.21875 0.003906-0.089843-0.015625-0.13281-0.089843-0.23438-0.085937l-6.457 0.3125c-0.042969 0-0.066406 0.042968-0.10547 0.050781-0.035156 0.003906-0.0625-0.027344-0.10156-0.015625l-8.8203 2.0508c-0.050781 0.011719-0.074219 0.066407-0.11719 0.089844-0.050782 0.015625-0.10547-0.011719-0.15234 0.015625l-7.6562 4.1094-4.3438-2.3789c-0.039062-0.023438-0.085938 0.003906-0.125-0.011719s-0.050781-0.066406-0.089844-0.078125l-3.1484-0.94531c-0.0625-0.015624-0.11328 0.023438-0.16406 0.015626-0.0625-0.011719-0.10156-0.066407-0.15625-0.066407h-10l-4.625-0.77344c-0.0625-0.011719-0.11328 0.039062-0.16797 0.039062-0.054688 0-0.11328-0.050781-0.16797-0.042968l-2.1992 0.3125c-0.11719 0.015624-0.18359 0.11719-0.29297 0.16797-0.10547 0.050782-0.22266 0.039063-0.3125 0.11719l-14.648 13.539c-0.003906 0.003906-0.003906 0.011719-0.003906 0.015625-0.003907 0.003907-0.015626 0-0.023438 0.003907l-9.6094 9.4531c-0.035156 0.035157-0.023437 0.097657-0.058594 0.14844-0.039062 0.050781-0.11328 0.054688-0.13281 0.11328l-10.902 20.137-4.4688 0.55469c-0.089844 0.011718-0.12891 0.089843-0.20703 0.11719s-0.16406-0.003906-0.23438 0.039063l-6.6016 4-6.2656 1.2227c-0.054687 0.011718-0.085937 0.074218-0.12891 0.089844-0.13281 0.042968-0.22266 0.125-0.33594 0.21875-0.11719 0.10156-0.21094 0.17969-0.28125 0.32031-0.027344 0.050781-0.089844 0.0625-0.10547 0.11719l-1.8867 5.5117c-0.035156 0.09375 0.023438 0.17188 0.015625 0.27344-0.011719 0.14062-0.015625 0.26172 0.027344 0.40234 0.042969 0.14062 0.11719 0.24219 0.21094 0.35156 0.054688 0.074219 0.0625 0.16797 0.13281 0.23047l7.2461 5.3594c0.003907 0.003906 0.011719 0 0.011719 0.003906 0.19141 0.13281 0.42188 0.21094 0.65625 0.21094 0.015625 0 0.035157-0.003907 0.050781-0.003907l-10.863 29.211c-0.011719 0.023437 0.003907 0.039062 0 0.0625-0.003906 0.023437-0.035156 0.027343-0.039062 0.050781l-1.5742 6.1445c-0.035156 0.12891 0.042969 0.24609 0.054688 0.375 0.011718 0.11719-0.042969 0.23438 0.011718 0.35156l3.1484 7.0898c0.09375 0.21094 0.24219 0.375 0.42188 0.49219l56.637 36.047-0.92969 48.867-14.609 57.512c-0.027344 0.11719 0.042969 0.23047 0.054687 0.34766 0.003907 0.11719-0.054687 0.23438-0.003906 0.35156l7.2422 17.641c0.10156 0.23438 0.27344 0.40234 0.48047 0.52734 0.011719 0.011718 0.011719 0.027344 0.023438 0.035156l4.957 2.6836 4.8438 116.81-3.4219 5.0508c-0.011718 0.023437 0 0.042969-0.011718 0.066406-0.078126 0.11719-0.066407 0.26172-0.089844 0.41406-0.023438 0.14062-0.074219 0.27344-0.035156 0.41406 0.003906 0.023438-0.015626 0.042969-0.003907 0.066406l4.3555 13.691 1.5742 77.129-2.1055 22.848h-0.39844c-0.085937 0-0.125 0.078125-0.20312 0.089844-0.14063 0.023437-0.25391 0.078125-0.375 0.15234-0.125 0.089844-0.21094 0.16406-0.30078 0.29688-0.039062 0.066406-0.11719 0.078124-0.15234 0.15234l-3.1484 7.3906c-0.011719 0.023438 0.011719 0.054688 0 0.078125-0.042969 0.14062-0.011719 0.27344-0.003906 0.41406 0.011719 0.15234-0.003907 0.28516 0.0625 0.42578 0.011719 0.023437-0.003907 0.054687 0.011719 0.078125l1.2617 2.168-1.7812 1.457c-0.09375 0.066406-0.09375 0.18359-0.15234 0.28516-0.074218 0.10156-0.19141 0.16406-0.22266 0.29688-0.011718 0.035157 0.015625 0.054688 0.011719 0.089844-0.027344 0.15234 0.027344 0.27344 0.054687 0.41406 0.035157 0.15234 0.039063 0.28516 0.11719 0.40234 0.015625 0.023438 0.003906 0.054688 0.027344 0.089844 0.0625 0.078125 0.16406 0.054687 0.24219 0.11328 0.11719 0.10156 0.19141 0.23047 0.34766 0.26172l0.035156 0.011719-0.54297 0.26172-3.1094 1.3203-8.5078 0.92969c-0.035157 0.011719-0.042969 0.035157-0.074219 0.042969-0.12891 0.023438-0.21875 0.11719-0.33594 0.18359-0.13281 0.078125-0.28125 0.12891-0.37109 0.26172-0.011719 0.023437-0.042969 0.023437-0.0625 0.042968l-1.0547 1.707-1.3711 0.50391c-0.054687 0.023438-0.074218 0.089844-0.11719 0.11328-0.054688 0.035157-0.11719 0.011719-0.17188 0.042969l-2.6758 2.0547c-0.015624 0.011718-0.015624 0.042968-0.035156 0.054687-0.11719 0.10156-0.15234 0.24219-0.21875 0.37891-0.0625 0.11719-0.14453 0.23047-0.15625 0.35938-0.003906 0.023438-0.027344 0.035156-0.027344 0.054688l-0.16406 5.5117c0 0.054688 0.042969 0.078126 0.050781 0.12891 0.011719 0.14062 0.078125 0.25391 0.14453 0.39062 0.074219 0.12891 0.11719 0.24219 0.23047 0.33984 0.039063 0.023437 0.039063 0.078124 0.078125 0.11328l5.0391 3.3047c0.11719 0.078125 0.24219 0.089844 0.35938 0.11328 0.050781 0.011718 0.078125 0.066406 0.12891 0.078124l9.7656 1.0938h0.125 0.10547l18.492-1.7188 21.004 1.7188h0.09375 12.438c0.23437 0 0.47656-0.078124 0.67578-0.23047l4.0781-3.1289c0.003906-0.011719 0.011718-0.011719 0.015625-0.011719l0.011719-0.011719c0.015624-0.011719 0.015624-0.035156 0.027343-0.054688 0.15625-0.12891 0.30078-0.29687 0.36328-0.50391l0.62109-2.043c0.015625-0.042969-0.023437-0.089844-0.015625-0.14063 0.011719-0.054687 0.0625-0.078124 0.0625-0.12891l0.16406-3.9375v-0.011718l0.14062-3.4883 1.2773-2.1094c0.011719-0.023437 0-0.035156 0.011719-0.054687 0.011719-0.011719 0.027344-0.023438 0.039063-0.042969l2.9844-6.1484c0.054687-0.11328 0.003906-0.21875 0.023437-0.33984 0.015625-0.125 0.10156-0.23047 0.074219-0.35938l-1.7305-8.6641c-0.027344-0.11719-0.12891-0.18359-0.19141-0.29688-0.066406-0.11719-0.10547-0.23047-0.20703-0.32031-0.125-0.11328-0.26953-0.12891-0.42578-0.17188-0.10156-0.035156-0.16797-0.11719-0.27344-0.11719h-0.96484l-5.0117-156.26v-0.011719l-0.28516-6.1875 15.238 43.676 2.1914 18.781c0.011719 0.054688 0.0625 0.089844 0.078125 0.14062 0.011718 0.042969-0.023438 0.10156 0 0.14062l4.9766 12.27 3.6055 50.859c0.003906 0.042969 0.054687 0.078125 0.0625 0.11719 0.011719 0.042968-0.023437 0.089844-0.011719 0.12891l3.4062 10.832-0.55469 7.8516h-1.0039c-0.066406 0-0.11328 0.054687-0.17187 0.066406-0.0625 0.011719-0.11719-0.035156-0.17188-0.011719-0.089843 0.035157-0.11719 0.11719-0.19141 0.16406-0.12891 0.089844-0.23438 0.15234-0.32422 0.28516-0.089844 0.11328-0.11719 0.23047-0.15625 0.37109-0.023438 0.089844-0.10156 0.15234-0.10156 0.24219 0 0.066407 0.0625 0.11328 0.074219 0.17188 0.003906 0.066406-0.035156 0.11719-0.015625 0.17188l4.5703 13.859c0.015625 0.042969 0.066407 0.078125 0.09375 0.11719 0.039063 0.089844 0.09375 0.14062 0.15234 0.20703 0.11719 0.14062 0.25781 0.24219 0.42578 0.32031 0.050782 0.023437 0.074219 0.078124 0.125 0.089843l4.6719 1.1367-0.28125 0.91797c-0.039062 0.12891 0.027344 0.25391 0.035157 0.37109 0.003906 0.11719-0.054688 0.23047-0.011719 0.34766l0.33984 0.89453-5.0859 16.492c-0.011719 0.042968 0.023437 0.078124 0.011719 0.11719-0.003906 0.042969-0.050782 0.066406-0.054688 0.11328l-0.32031 3.457c-0.011719 0.12891 0.078125 0.23047 0.10547 0.33984 0.027344 0.11719-0.011718 0.25391 0.0625 0.35938l0.61719 0.98438v3.4648c0 0.035156 0.035156 0.054687 0.039062 0.10156 0.011719 0.14062 0.09375 0.24219 0.15625 0.37109 0.074219 0.14062 0.11328 0.26172 0.22266 0.35938 0.027343 0.023438 0.027343 0.066406 0.054687 0.089844l6.3008 4.4062c0.19531 0.12891 0.42187 0.19531 0.64453 0.19531h0.074219l9.8438-0.63281h0.003906 0.070312c0.011719 0 0.015625-0.011719 0.027344-0.011719 0.10547-0.011719 0.20703-0.023437 0.3125-0.066406l14.023-5.5117c0.027343-0.011718 0.035156-0.042968 0.0625-0.054687 0.23437-0.11328 0.4375-0.27344 0.55469-0.52734l4.0898-9.1328c0.035156-0.078124-0.011719-0.14062 0.003906-0.21875 0.015625-0.078124 0.089844-0.12891 0.089844-0.20703l0.32031-13.715c0-0.011719-0.015625-0.023438-0.015625-0.042969 0-0.023438 0.023438-0.035157 0.015625-0.054688l-0.39062-5.7305 0.074219-0.011718c0.042969 0 0.066406-0.054688 0.11328-0.066406 0.10547-0.023438 0.21094-0.023438 0.3125-0.089844l1.5742-0.95312c0.042969-0.023438 0.042969-0.078125 0.085937-0.11328 0.11719-0.089844 0.17188-0.20703 0.24609-0.33984 0.074219-0.11719 0.14062-0.23047 0.15625-0.37109 0.003906-0.054688 0.054688-0.089844 0.054688-0.12891v-18.582c0-0.023437-0.027344-0.042968-0.027344-0.066406-0.011719-0.14062-0.10156-0.24219-0.15625-0.37109-0.066406-0.14062-0.10156-0.28516-0.21094-0.37891-0.015624-0.011718-0.015624-0.042968-0.035156-0.054687-0.10547-0.089844-0.23047-0.054688-0.34766-0.10156-0.11719-0.042968-0.21094-0.14062-0.34766-0.14062-0.027344 0-0.042969 0.023438-0.066406 0.023438-0.15234 0.011719-0.26172 0.10156-0.40234 0.16406-0.11719 0.066407-0.25391 0.089844-0.33984 0.18359l-4.375-10.203-1.2812-68.598c0-0.066406-0.0625-0.10156-0.074219-0.15234-0.011719-0.066406 0.035157-0.11719 0.011719-0.17188l-7.5078-22.527-1.7305-70.066c0-0.023437-0.023438-0.035156-0.023438-0.054687-0.003906-0.023438 0.015625-0.042969 0.015625-0.066407l-3.9375-30.711c-0.003906-0.011719-0.023437-0.023438-0.023437-0.035156-0.003907-0.023438 0.011719-0.042969 0.003906-0.054688l-2.0391-9.543 15.805 1.4375c0.039062 0.003907 0.074219 0.003907 0.10547 0.003907 0.25781 0 0.51562-0.089844 0.72656-0.26953l4.2578-3.625c0.003906-0.003906 0-0.011718 0.003906-0.015625 0.003906-0.003906 0.015625 0 0.023438-0.003906 0.11719-0.10547 0.11719-0.25781 0.17969-0.38672 0.0625-0.125 0.16406-0.23047 0.17188-0.37109 0.011719-0.14062-0.089844-0.26172-0.12891-0.39844-0.039063-0.13281-0.027344-0.28516-0.125-0.39844-0.003906-0.003907-0.015625-0.003907-0.015625-0.011719-0.003907-0.003907-0.003907-0.011719-0.011719-0.015625l-12-13.199 23.438-34.082c0.035156-0.050782 0.003906-0.11328 0.035156-0.15625 0.035156-0.066406 0.10547-0.10547 0.11719-0.17969l5.8242-21.262c0.015626-0.0625-0.027343-0.11719-0.023437-0.17188 0.011719-0.066406 0.066406-0.10547 0.0625-0.16797zm0.58594 61.969-5.7227 20.906-23.082 33.566-14.234-13.793-4.7148-7.1406 12.168-17.488c0.066406-0.09375 0.035156-0.20703 0.066406-0.30859 0.039063-0.11328 0.12891-0.18359 0.12891-0.30859l1.0938-43.742 6.5391-16.676c0.23047-0.58203-0.054687-1.2266-0.62891-1.457-0.58984-0.20703-1.2305 0.054687-1.457 0.63281l-4.543 11.574-0.37891-23.312c-0.011718-0.60938-0.51562-1.1016-1.1211-1.1016h-0.023438c-0.61719 0.011719-1.1094 0.51953-1.0977 1.1367l0.47656 28.984v0.003906l-1.0859 43.551-12.41 17.84-14.223 20.469-8.6406 5.8633c-0.09375 0.066407-0.10547 0.17969-0.17187 0.26172-0.074219 0.089844-0.18359 0.11719-0.23047 0.23047l-7.0898 17.008-1.3281 3.0859-5.9375 5.6797-7.3477-11.598-3.3906-15.73-0.16406-14.074-0.3125-35.062 8.6523-75.523c0.003906-0.035156-0.027344-0.0625-0.027344-0.09375 0.003906-0.035156 0.039063-0.0625 0.035156-0.09375l-0.14062-2.7422 9.0391-22.668 20.539-9.5742c0.042969-0.023437 0.050782-0.074219 0.089844-0.10156 0.15234-0.089844 0.24609-0.21094 0.33984-0.36328 0.054688-0.089844 0.11719-0.15234 0.15234-0.25391 0.003906-0.039062 0.042968-0.054687 0.050781-0.089843l0.5-2.582 10.188 5.6445 4.3164 3.8594c0.027344 0.023438 0.0625 0.011719 0.089844 0.035157 0.023437 0.015625 0.015625 0.042969 0.039063 0.0625 0.19141 0.12891 0.41016 0.19141 0.62109 0.19141 0.30859 0 0.60938-0.125 0.83594-0.375 0.023437-0.023437 0.011719-0.0625 0.027343-0.089844 0.015626-0.015625 0.054688-0.011719 0.066407-0.035156l1.5742-2.3633c0.050781-0.074219 0.015624-0.14453 0.042968-0.22266 0.039063-0.089844 0.11719-0.14453 0.13281-0.24609l1.3594-9.9336 21.387 10.992 9.4531 10.824 6.668 25.004zm-20.656 72.527-16.621-1.5117-8.3008-4.6094h-0.003906c-0.003906-0.003906-0.003906-0.011719-0.011718-0.011719l-4.625-2.4688-11.727-9.9609 12.812-18.441 4.2891 6.4961c0.023437 0.035156 0.074218 0.023437 0.10156 0.054687 0.035156 0.039063 0.015625 0.09375 0.054688 0.12891l15.242 14.766 11.809 12.988zm-28.969-0.94141c-0.035157 0.0625 0 0.11719-0.015626 0.17969-0.023437 0.0625-0.089843 0.089843-0.10156 0.15234l-1.5977 9.2695-10.625 1.4453-9.8828-2.4414-6.0938-3.5234 6.5859-15.797 7.8281-5.3086 11.949 10.152c0.039063 0.035156 0.089844 0.023437 0.125 0.042968 0.035157 0.027344 0.035157 0.074219 0.074219 0.09375l3.7422 1.9922zm-65.164 7.9531-19.207-9.3867c-0.003906-0.003907-0.011719-0.003907-0.015625-0.011719l-0.28516-0.13281-5.125-2.7773-6.9492-16.934 14.555-57.281c0.011719-0.042969-0.023437-0.085938-0.015625-0.125 0.003906-0.050781 0.054688-0.078125 0.054688-0.125l0.94141-49.609c0-0.050782-0.042969-0.085938-0.050781-0.12891-0.015625-0.14063-0.085938-0.25391-0.15234-0.37891-0.066406-0.12891-0.11719-0.24609-0.24219-0.33984-0.035157-0.035157-0.035157-0.089844-0.078126-0.11719l-56.891-36.219-2.8516-6.418 1.4688-5.7188 11.465-30.805 0.90234-0.34766 3.5938 3.4492 7.1445 16.023c0.003906 0.011718 0.015625 0.015625 0.023437 0.027344 0.015625 0.039062 0.0625 0.0625 0.089844 0.10156 0.11719 0.19531 0.28516 0.33203 0.48047 0.41406 0.039062 0.015626 0.050781 0.0625 0.085937 0.074219l6.3789 2.0781-0.52734 4.4414c-0.003906 0.0625 0.050781 0.10547 0.050781 0.16797 0.003906 0.14453 0.050781 0.26172 0.11719 0.39062 0.0625 0.13281 0.11719 0.24609 0.22266 0.34766 0.042969 0.042969 0.042969 0.11328 0.09375 0.14453l8.5078 5.8242c0.19141 0.12891 0.41406 0.19531 0.63281 0.19531 0.023437 0 0.042968 0 0.074218-0.003906l17.09-1.0938h0.003906 0.011719l0.0625-0.003907c0.003907 0 0.003907-0.003906 0.011719-0.003906 0.066406-0.003906 0.12891-0.011718 0.19531-0.027344l7.7852-2.0234 15.715-1.4844-6.625 4.6523c-0.10156 0.066406-0.10547 0.18359-0.17187 0.27344-0.066407 0.085938-0.17188 0.11719-0.21875 0.22266-0.015626 0.042968 0.011718 0.085937 0 0.11719-0.039063 0.14062-0.011719 0.26953 0.003906 0.41406 0.015625 0.14453 0.015625 0.28125 0.089844 0.41016 0.023437 0.039062 0.003906 0.085937 0.027343 0.11719 0.050781 0.066407 0.14453 0.050781 0.20312 0.10547 0.10547 0.10156 0.15625 0.23438 0.29688 0.29297l5.8281 2.3633c0.13281 0.054688 0.28125 0.085938 0.42188 0.085938 0.125 0 0.25391-0.023438 0.37109-0.066407l6.7578-2.4023 8.7734 12.434 1.082 19.691 0.15234 2.9023-8.6367 75.395-8.6289 26.195c-0.011719 0.042969 0.023437 0.089844 0.011719 0.12891-0.011719 0.039063-0.054688 0.054688-0.0625 0.10156l-0.78906 7.3906c0 0.003906 0.003907 0.011719 0.003907 0.015625s-0.003907 0.011718-0.003907 0.015625l-0.17188 2.0273-1.2539 10.023v0.003906l-0.46875 3.4609c0 0.003906 0.003906 0.011718 0.003906 0.015625 0 0.003906-0.011718 0.011719-0.011718 0.015625zm-72.07-222.52 1.4102-4.1211 5.8281-1.1328c0.042968-0.011719 0.0625-0.054687 0.10156-0.066406 0.09375-0.027344 0.18359-0.027344 0.26953-0.078125l6.5703-3.9766 2.6836-0.33594-6.7383 12.941h-0.26172c-0.003906 0-0.003906 0.003906-0.011719 0.003906-0.074219 0-0.125 0.0625-0.19531 0.078125-0.066406 0.011719-0.12891-0.035156-0.19531-0.003906l-2.0273 0.78516-1.3008 0.4375zm30.93-31.043 9.4805-9.3281 14.363-13.277 1.6914-0.24219 4.5469 0.76172c0.0625 0.011719 0.11719 0.015625 0.18359 0.015625h9.9219l2.8633 0.85547 4.7812 2.6211c0.003907 0 0.011719 0 0.011719 0.003907l7.5977 4.3789v0.28125l-12.691-6.6406c-0.085938-0.042969-0.17188 0-0.26172-0.023438-0.09375-0.027343-0.15625-0.11328-0.25781-0.11328h-3.3164c-0.011718 0-0.015624 0.011719-0.027343 0.011719-0.007813 0.003906-0.003907 0-0.011719 0l-12.281 0.63281c-0.61719 0.035157-1.0938 0.56641-1.0586 1.1797 0.035156 0.59375 0.52734 1.0586 1.1211 1.0586h0.054688l12.281-0.63281h2.9922l12.746 6.668 0.035156 0.34766-0.95312 0.44141-14.875-4.3008c-0.054688-0.015625-0.10547 0.027344-0.15625 0.023438-0.0625-0.011719-0.09375-0.066407-0.15234-0.066407h-9.1445c-0.61719 0-1.1211 0.50391-1.1211 1.1211 0 0.61719 0.50391 1.1211 1.1211 1.1211h8.8633l8.9375 4.5469 0.44141 0.39844-0.37891 0.29297-7.0547-1.6172c-0.078125-0.015625-0.13281 0.039062-0.21094 0.039062-0.066406-0.003906-0.11719-0.0625-0.19141-0.054687l-6.9258 0.94531c-0.10156 0.011719-0.15234 0.10547-0.24219 0.14062s-0.17969 0.003906-0.26172 0.0625l-3.9492 2.8281c-0.011719 0.011719-0.003907 0.027344-0.023438 0.035157-0.011719 0.011718-0.035156 0.003906-0.042969 0.015624l-7.7266 6.4961-9.9023 3.7109c-0.023437 0.011718-0.027344 0.035156-0.050781 0.042968-0.13281 0.0625-0.21094 0.18359-0.32422 0.30078-0.09375 0.11328-0.20703 0.17969-0.25781 0.32031-0.011719 0.023438-0.039063 0.027344-0.050782 0.054688l-6.6211 21.094-18.043 8.0352-3.8242-0.20703 7.2305-13.875zm56.973-22.926 8.5469-1.9883 6.1641-0.29688 5.0586 1.9258 0.12891 0.066406-4.6562 1.1406c-0.035156 0.011718-0.050782 0.050781-0.085938 0.0625-0.027344 0.011718-0.0625-0.015626-0.09375 0l-6.6055 2.832c-0.054688 0.023437-0.066407 0.09375-0.11719 0.11719-0.050781 0.035156-0.11719 0.015625-0.16406 0.054688l-5.2031 4.4141c-0.054687 0.050782-0.050781 0.125-0.09375 0.17969-0.042968 0.054687-0.125 0.0625-0.15625 0.125l-8.9766 16.062c-0.003906 0.011718 0 0.015625-0.003906 0.027344 0 0.003906-0.011719 0.011718-0.015625 0.015624l-2.0312 4.0586-9.3086 4.1953-1.9023 0.48438-1.9531-1.5234 0.13281-4.7812 0.58203-1.8984 1.9883-5.5234 2.3594-3.9297 6.7695 1.5508c0.085937 0.015625 0.16797 0.027344 0.25391 0.027344 0.23438 0 0.46875-0.074219 0.66797-0.22266l0.023438-0.015624h0.003906l1.8633-1.3984c0.039062-0.027344 0.035156-0.078125 0.066406-0.10547 0.027344-0.027343 0.074218-0.015625 0.10156-0.042969 0.078125-0.089843 0.0625-0.20703 0.11328-0.30859 0.0625-0.13281 0.12891-0.24609 0.13281-0.39062 0.011719-0.14453-0.050781-0.26172-0.10156-0.39844-0.039063-0.11328-0.011719-0.22266-0.085938-0.32422-0.027344-0.035157-0.074219-0.027344-0.10156-0.0625-0.027344-0.027344-0.023438-0.074219-0.050782-0.10156l-1.2891-1.1641 4.6367 1.3398c0.10547 0.027344 0.20703 0.042969 0.3125 0.042969 0.15625 0 0.32031-0.035156 0.46875-0.10547l2.0508-0.94531c0.085937-0.039063 0.10547-0.12891 0.16797-0.18359 0.11719-0.089844 0.20313-0.16797 0.27344-0.29688 0.078125-0.12891 0.11328-0.25391 0.125-0.39844 0.011719-0.089844 0.085938-0.15234 0.078125-0.24219l-0.10547-1.1328 0.3125-0.24609c0.023438-0.015625 0.015625-0.042969 0.035156-0.0625 0.11328-0.10156 0.14063-0.23438 0.20703-0.36328 0.0625-0.13281 0.14453-0.24609 0.15625-0.38672 0-0.027344 0.027344-0.039063 0.027344-0.066406l0.003906-1.7461c0-0.054688-0.050782-0.089844-0.0625-0.14062-0.015625-0.14453-0.085938-0.25391-0.15625-0.375-0.078125-0.12891-0.12891-0.24219-0.25391-0.33594-0.042969-0.027343-0.042969-0.089843-0.09375-0.11719l-6.4531-3.7227zm27.289 0.11719 4.6641 1.5508 4.7383 4.1484 6.9102 11.52 1.3438 5.0742 0.15234 6.7891-1.6445 6.4414-2.9961 4.1953-0.60547 0.71875-0.078125-2.4258c0-0.003907-0.003906-0.011719-0.003906-0.015626 0-0.011718 0.003906-0.015624 0.003906-0.027343l-0.61719-8.8242c0-0.039062-0.039062-0.0625-0.042968-0.10156-0.003907-0.035157 0.023437-0.066407 0.011718-0.10156l-1.1016-4.4023c-0.027344-0.11328-0.125-0.15234-0.17969-0.24609-0.050781-0.089844-0.039062-0.19531-0.11719-0.27344l-2.9961-2.9922c-0.074219-0.074218-0.17188-0.0625-0.26172-0.11328-0.085937-0.050781-0.125-0.14453-0.22266-0.17188l-3.9453-1.1016c-0.0625-0.015625-0.11719 0.027344-0.17188 0.023437-0.054687-0.011719-0.10156-0.0625-0.15234-0.066406l-6.9219 0.15625c-0.0625 0-0.09375 0.054687-0.15234 0.066406-0.054688 0.011719-0.10547-0.027343-0.15625-0.011719l-9.4531 2.9922c-0.027344 0.011719-0.035156 0.039062-0.0625 0.050781s-0.054687-0.003906-0.085937 0.003907l-6.2617 2.9688h-0.003907l-8.6641 3.7852c-0.023438 0.011718-0.027344 0.039062-0.050781 0.050781-0.023438 0.011719-0.050781 0-0.074219 0.011719l-6.0469 3.5508 1.4883-3.207 2.1719-4.3359 8.875-15.895 4.918-4.168 6.3555-2.7227 7.6445-1.875s0-0.003906 0.003906-0.003906h0.015625zm21.734 77.551 7.5273 9.3281-1.4766 10.762-0.71875 1.0742-3.4492-3.0781c-0.035156-0.035157-0.085937-0.015626-0.11719-0.042969-0.035157-0.027344-0.039063-0.078125-0.085938-0.10156l-11.652-6.457c-0.054688-0.035156-0.11719 0-0.17969-0.023437-0.0625-0.023438-0.089844-0.089844-0.15234-0.10156-0.089844-0.023437-0.15625 0.042969-0.24609 0.050781-0.15234 0.003906-0.27344 0.015625-0.41016 0.085938-0.14062 0.066406-0.23438 0.15234-0.33594 0.26953-0.0625 0.066406-0.15234 0.078125-0.19531 0.15625-0.035156 0.054687 0 0.11719-0.023437 0.17188-0.023438 0.054688-0.089844 0.089844-0.10156 0.15234l-0.67578 3.5352-13.637 6.3555 10.176-9.1602s0-0.003906 0.003906-0.011718c0.003906-0.003906 0.011718 0 0.011718-0.003906l11.484-10.859 3.1211-2.6445c0.042969-0.039062 0.039063-0.10156 0.078125-0.14062 0.054688-0.0625 0.11328-0.10547 0.14453-0.17188zm-51.184 15.594c-0.0625-0.089844-0.16797-0.10156-0.25391-0.15625-0.11328-0.09375-0.19531-0.16797-0.33594-0.21094-0.14062-0.050781-0.26953-0.039062-0.42188-0.023437-0.10156 0.003906-0.18359-0.050781-0.28516-0.015625l-7.1523 2.543-3.5273-1.4336 8.3984-5.9023c0.011719-0.011719 0.011719-0.027343 0.023437-0.039062 0.011719-0.003907 0.027344 0 0.039063-0.011719l4.9727-4.043 2.5938-1.5117 1.7188 0.18359 0.54688 6.6016 0.86328 14.18zm-24.328-5.3477c-0.035156 0.003906-0.054687 0.039062-0.089844 0.042968-0.035156 0.003907-0.0625-0.023437-0.09375-0.011718l-7.7773 2.0234-16.664 1.0625-7.6289-5.2266 0.49219-4.2109 5.4492-4.1289c0.015625-0.015625 0.015625-0.042969 0.035156-0.0625 0.11719-0.10156 0.15234-0.24219 0.22266-0.375 0.0625-0.125 0.14453-0.22266 0.15625-0.35938 0-0.023438 0.023437-0.035156 0.023437-0.054688l0.94531-26.137 6.5625-20.914 9.5703-3.5898c0.054688-0.023438 0.074219-0.089844 0.125-0.11719 0.066406-0.035156 0.14062-0.023438 0.20312-0.074219l7.875-6.625 3.6328-2.6133 4.3438-0.58984-1.6367 2.7227c-0.023438 0.035157 0 0.078126-0.015625 0.11719-0.015625 0.035156-0.0625 0.042969-0.078125 0.085938l-1.4688 4.125-1.4492-1.2773c-0.078125-0.074219-0.17969-0.050782-0.27344-0.09375-0.089843-0.042969-0.13281-0.14062-0.24219-0.16406l-1.5742-0.32422c-0.11328-0.015624-0.19531 0.050782-0.30078 0.0625-0.11719 0.011719-0.23438-0.050781-0.35156 0.003907l-1.8945 0.78906c-0.11328 0.042969-0.14453 0.16406-0.23438 0.24219-0.09375 0.070312-0.22266 0.089843-0.28906 0.20312l-3.1484 5.0469c-0.015625 0.027343 0 0.0625-0.011718 0.089843-0.015626 0.027344-0.054688 0.035157-0.066407 0.0625l-1.8945 4.4023c-0.027344 0.0625 0.011719 0.11719-0.003906 0.17188-0.015625 0.054688-0.078125 0.10156-0.085938 0.16406l-0.46875 5.0469c-0.011718 0.10156 0.066406 0.16797 0.085938 0.26953 0.015625 0.10156-0.039063 0.19141 0.003906 0.28516l1.5742 3.6172c0.11328 0.24609 0.29688 0.41016 0.51562 0.52734 0.023437 0.003906 0.027344 0.035156 0.042968 0.042968l3.7852 1.7422c0.11719 0.054687 0.24609 0.074218 0.36328 0.085937 0.023438 0 0.027344 0.023438 0.050781 0.023438l6.4531 0.32031h0.054688c0.16406 0 0.33203-0.039062 0.48828-0.11719l1.8984-0.91797 0.18359 1.5469-3.6133 1.4102c-0.035156 0.015625-0.042969 0.0625-0.078125 0.078125-0.13281 0.066407-0.20703 0.17969-0.30859 0.29688-0.09375 0.11328-0.19141 0.19141-0.23438 0.33203-0.011719 0.039062-0.054687 0.050781-0.066406 0.089843l-0.61719 2.6562c-0.023438 0.10156 0.042968 0.17188 0.050781 0.27344 0 0.09375-0.066407 0.16797-0.039063 0.26172l0.94141 3.625c0.015626 0.078124 0.089844 0.11719 0.11719 0.17969 0.023438 0.050781-0.003906 0.11328 0.027344 0.15625l2.5273 3.7852c0.035156 0.050781 0.10547 0.035157 0.14062 0.078125 0.050782 0.054688 0.050782 0.14062 0.11328 0.19141l2.6758 2.043c0.19531 0.14453 0.42578 0.21094 0.64844 0.21875 0.011719 0 0.023438 0.011719 0.027344 0.011719h0.003906c0.054688 0 0.11719-0.003906 0.16797-0.015625l2.0508-0.32031c0.042969-0.003906 0.0625-0.050781 0.10156-0.054687 0.035156-0.011719 0.066406-0.015625 0.10156-0.035156l1.457 2.4688 2.3281 6.0547c0.003906 0.015625 0.027344 0.027344 0.035156 0.042969 0.003906 0.015625 0 0.027344 0.003906 0.042969l4.2578 8.6641c0.027343 0.0625 0.089843 0.089844 0.125 0.14062 0.027343 0.035157 0.011719 0.078125 0.039062 0.11328l3.6172 4.0938c0.0625 0.0625 0.14453 0.050782 0.21094 0.10156 0.125 0.09375 0.25391 0.17969 0.41406 0.21094l-0.035157 0.023438c-0.027343 0.015625-0.027343 0.054688-0.054687 0.074219-0.027344 0.023437-0.066406 0.003906-0.089844 0.027343l-4.7734 3.8867zm-39.246-10.184-7.0352-15.77c-0.035156-0.074219-0.11719-0.089844-0.15625-0.14453-0.042969-0.066407-0.027344-0.15234-0.089844-0.20703l-2.1406-2.0547 3.8203 0.20703c0.015625 0.003906 0.039062 0.003906 0.0625 0.003906 0.15234 0 0.30859-0.035156 0.45312-0.10156l17.109-7.6172-0.86328 23.969-4.9336 3.7461zm45.277-42.152c0.19141 0.15234 0.42969 0.24219 0.6875 0.24219 0.089844 0 0.17969-0.011719 0.27344-0.035156l2.5156-0.63281c0.023437-0.003906 0.027343-0.027344 0.050781-0.039063 0.042969-0.011718 0.09375-0.003906 0.13281-0.027343l7.0273-3.1641-1.625 3.5-4.2734 3.5391-2.2578 1.1992s0 0.003906-0.003906 0.003906l-3.9492 1.9023-5.9648-0.29297-3.1953-1.4648-1.2891-2.9609 0.42578-4.582 1.793-4.1719 2.9062-4.6602 1.25-0.51953 0.94531 0.19531 1.9141 1.6875-0.42188 1.3438c-0.015625 0.054688 0.027344 0.10547 0.015625 0.15625-0.011718 0.050782-0.0625 0.089844-0.066406 0.14062l-0.15234 5.5117c0 0.035156 0.035156 0.050781 0.035156 0.085938 0.003907 0.14453 0.089844 0.25781 0.14453 0.38672 0.066406 0.13281 0.10156 0.26953 0.20703 0.37109 0.023437 0.015625 0.015625 0.054688 0.042969 0.074219zm19.629-3.8203 8.2109-3.5898 4.5547 1.5234 2.9727 2.6875 2.043 4.1992-11.09 4.1094-3.0117-1.7695c-0.089844-0.050781-0.18359-0.011719-0.28125-0.039062-0.09375-0.027344-0.15234-0.11328-0.25391-0.11719l-4.5703-0.15625c-0.085938-0.011719-0.13281 0.066406-0.21094 0.078125-0.074218 0.011719-0.12891-0.039063-0.19531-0.011719l-7.2422 2.5352c-0.003906 0-0.003906 0.011719-0.011718 0.011719-0.003906 0.003907-0.011719 0-0.023438 0l-6.9336 2.6758c-0.003906 0.003907-0.011718 0.015626-0.015624 0.015626-0.023438 0.011718-0.039063 0-0.0625 0.011718l-0.10156-0.85156 0.5-1.1016 2.0273-1.0703c0.035156-0.015625 0.039062-0.0625 0.066406-0.085938 0.039063-0.023437 0.089844-0.015625 0.11719-0.042969l4.4961-3.7188zm14.863-6.7266 9.2148-2.9219 6.6133-0.14453 3.4883 0.98047 2.5703 2.5664 1.0078 4 0.44922 6.4062-1.1094-1.5469c-0.015626-0.023437-0.042969-0.015625-0.0625-0.039063-0.015626-0.023437-0.011719-0.050781-0.027344-0.074218l-2.043-2.207c-0.003906-0.003906-0.015625-0.003906-0.015625-0.011718-0.10156-0.10156-0.25391-0.11719-0.375-0.17188-0.14062-0.0625-0.26172-0.16797-0.41016-0.16797-0.011719 0-0.011719-0.003906-0.015625-0.003906l-2.8438-0.003906c-0.29297 0-0.57812 0.11328-0.79688 0.33203l-0.13281 0.13281-10.473 3.668-2.2383-4.6133c-0.035156-0.074219-0.11719-0.085938-0.16406-0.14062-0.042969-0.0625-0.035156-0.14062-0.09375-0.19531l-3.3047-2.9844c-0.0625-0.054687-0.14453-0.039062-0.22266-0.085937-0.066407-0.039063-0.09375-0.11719-0.16797-0.14453l-2.5664-0.86719zm22.395 26.062c-0.13281 0.078125-0.23438 0.14062-0.33203 0.26953-0.10156 0.11719-0.14062 0.23438-0.17969 0.38672-0.023437 0.085938-0.10547 0.13281-0.11328 0.23047l-0.23047 6.7188c-0.027344 0-0.050781 0.011719-0.078125 0.011719-0.023438 0.003906-0.042969 0.011719-0.066406 0.015625l-1.5391-7.0039 1.9609-2.0898c0.035156-0.035156 0.023437-0.089844 0.050781-0.125 0.050781-0.066406 0.125-0.11328 0.16406-0.19141l1.1914-2.7344-0.61719 4.3672c-0.011719 0-0.023437-0.011719-0.035156-0.003906-0.070313 0.027344-0.10547 0.10938-0.17578 0.14844zm-34.207 1.8555h-2.7656l-3.0781-0.99219-3.6406-3.0508-1.4609-2.25v-2.1289l0.20703-1.4375 6.3906-2.2227 4.082 0.14062 2.8789 1.6914 0.64844 1.8242c0.003907 0.011719 0.015625 0.015625 0.023438 0.035156 0.003906 0.011719 0 0.015625 0 0.027344 0.015625 0.039062 0.0625 0.054687 0.078125 0.09375 0.015625 0.027343 0 0.054687 0.015625 0.085937l0.20703 0.32031 0.67188 2.8242-0.65625 2.2188-1.2812 1.9336zm4.9727-10.301-0.015625-0.042969 1.0547-0.39062zm15.16 4.9531-1.9023-8.1211 2.8008-1.0625-0.19531 2.9844c0 0.050781 0.042969 0.089844 0.050781 0.13281 0 0.050781-0.039062 0.09375-0.035156 0.14062l1.0547 5.6328zm-40.98 9.0039-2.3203-3.4844-0.81641-3.1523 0.42969-1.8359 3.8594-1.5195c0.011719-0.003906 0.011719-0.011718 0.015625-0.015624 0.011719 0 0.027344 0 0.039063-0.003907l1.0039-0.44922 1.1719 0.42578 1.6445 1.1367 0.73828 1.8594v3.5625l-1.2656 4.2266-0.45312 0.35938-0.54297 0.32422-1.3477 0.20703zm26.941 65.574-0.82422-14.945v-0.003906l-0.90625-15.012 0.23438 0.25781c0.003906 0.003906 0.015625 0 0.023437 0.003906 0.20312 0.21094 0.48047 0.34766 0.80078 0.34766h4.8828c0.035156 0 0.066406 0 0.10547-0.003906l16.633-1.5742-13.227 11.91c-0.066407 0.0625-0.0625 0.15234-0.11328 0.22266-0.054688 0.078125-0.14453 0.10547-0.17969 0.19141l-0.011719 0.035156h-0.003906zm37.469-47.094 0.15234 0.76562-1.7305 1.4688-1.5234-2.0781zm-6.1328-0.19141 2.8789 3.9141-10.496 9.9297-19.566 1.8477h-4.3438l-1.7656-1.8867-0.51953-6.2109 7.4219-1.8203c0.042969-0.011719 0.054687-0.054688 0.10156-0.074219 0.074218-0.027343 0.15234-0.023437 0.22266-0.066406l6.3008-3.9375c0.09375-0.054687 0.10547-0.16406 0.16797-0.23438 0.050781-0.050781 0.12891-0.035156 0.16797-0.09375l3.1484-4.7266c0.34766-0.51953 0.20312-1.2148-0.3125-1.5508-0.51562-0.35156-1.2109-0.20703-1.5508 0.30859l-3.0156 4.5312-5.9453 3.7109-7.9727 1.9609-2.8047-0.30078c-0.003907 0-0.003907 0.003906-0.011719 0.003906l-0.003907-0.003906-2.8633-0.26172-3.2305-3.6562-4.1602-8.4766-2.3477-6.0977c-0.011719-0.035156-0.050781-0.039062-0.066406-0.066406-0.015625-0.035156 0.003906-0.066406-0.015625-0.10156l-1.5469-2.6328 0.027344-0.023437c0.035156-0.027344 0.027343-0.085938 0.0625-0.11719 0.125-0.125 0.25781-0.25781 0.3125-0.4375l1.4102-4.7266c0.015625-0.054688-0.027344-0.11328-0.015625-0.16406 0.011719-0.0625 0.066406-0.10156 0.066406-0.15625v-3.9375c0-0.078125-0.066406-0.125-0.085937-0.19531-0.015626-0.078124 0.035156-0.14453 0-0.21875l-0.94141-2.3633c-0.042969-0.11328-0.15625-0.15234-0.23047-0.23438-0.074218-0.089844-0.085937-0.20312-0.17187-0.26953l-1.5195-1.0547 2.6562-1.0234-0.050781 0.3125c0 0.027344 0.023437 0.050781 0.023437 0.078125 0 0.035156-0.035156 0.050781-0.035156 0.085937v2.5195c0 0.11719 0.089844 0.19141 0.11719 0.29688s0 0.21094 0.0625 0.3125l1.7344 2.6758c0.027343 0.042969 0.09375 0.027344 0.125 0.074219 0.042969 0.054687 0.039062 0.12891 0.09375 0.17969l3.9375 3.3047c0.074219 0.054687 0.15625 0.050781 0.23438 0.089844 0.0625 0.027343 0.078125 0.10156 0.14062 0.11719l3.4609 1.1094c0.11719 0.039062 0.23047 0.054688 0.34766 0.054688h3.1484c0.13281 0 0.27344-0.027344 0.40234-0.078126l2.8398-1.1094c0.15625-0.0625 0.22266-0.20703 0.33594-0.32031 0.054687-0.054687 0.14453-0.039063 0.19141-0.10547l1.5742-2.3633c0.035156-0.042969 0.003906-0.10156 0.027344-0.14062 0.035156-0.0625 0.10156-0.10156 0.11719-0.16406l0.78906-2.6719c0.035156-0.10547-0.035156-0.19141-0.027344-0.29687 0-0.09375 0.066406-0.17969 0.042969-0.28125l-0.69922-2.9453 10.328-4.3906 2.0547 8.793c0.039063 0.16406 0.15625 0.27344 0.25781 0.39062 0.050781 0.074218 0.066406 0.15625 0.12891 0.21094 0.18359 0.14453 0.41406 0.23047 0.66016 0.24219 0.011718 0 0.023437 0.015625 0.039062 0.015625h0.007812c0.054688 0 0.11719-0.003906 0.16797-0.015625l3.9375-0.63281c0.003907 0 0.003907 0 0.003907-0.003906h0.023437c0.16406-0.027344 0.26172-0.15625 0.38672-0.25391 0.10547-0.074219 0.24609-0.10156 0.32031-0.20312 0.10156-0.14062 0.09375-0.32422 0.11719-0.5 0.015625-0.11719 0.09375-0.20703 0.078125-0.33203 0-0.003907-0.003907-0.003907-0.003907-0.011719-0.003906-0.003907 0.003907-0.011719 0-0.015625l-1.2383-6.6289 0.25781-3.9141 0.28125-0.125-0.027344 0.0625c-0.23438 0.57031 0.039062 1.2266 0.60938 1.4609 0.13281 0.0625 0.28516 0.089844 0.42578 0.089844 0.4375 0 0.85156-0.26172 1.0352-0.69531l1.0117-2.4531 2.0273-1.8828c0.003906-0.003906 0.003906-0.003906 0.003906-0.011718h1.8984l1.6562 1.7852 1.3828 1.9258 0.39844 2.5664-0.73828 4.7266-1.4375 3.3164-2.2305 2.375c-0.015625 0.015625-0.003907 0.042969-0.023438 0.066406-0.015625 0.015625-0.042969 0.011719-0.0625 0.035156l-0.28125 0.37891-1.5117 0.59375-2.0273-1.3906c-0.51562-0.34766-1.2109-0.22266-1.5586 0.29297-0.34766 0.50781-0.21875 1.2109 0.29297 1.5586l2.5195 1.7305h0.003906c0.18359 0.125 0.40234 0.19531 0.62891 0.19531 0.13281 0 0.28125-0.027344 0.41406-0.085938l1.6953-0.67578 1.6758 7.5977c0 0.011719 0.011718 0.015625 0.015625 0.027344 0 0.011719-0.003907 0.015625-0.003907 0.027343l0.47656 1.7305c0.003906 0 0 0.003907 0 0.003907l2.0508 7.4102c0.027344 0.089844 0.10547 0.12891 0.14062 0.20703 0.027344 0.050781 0.003907 0.11719 0.042969 0.16406zm-44.301 176.39-5.9922-0.56641 0.96484-7.6953 5.1523 1.2305zm-3.9414-18.844 6.5-19.738 0.24219 27.02-7.4023-1.082zm-2.3398 20.5 7.2812 0.6875c0.027343 0.003906 0.054687 0.003906 0.085937 0.003906h0.023438c0.29688 0 0.55859-0.11719 0.76172-0.3125 0.078126-0.074219 0.085938-0.17969 0.13281-0.27344 0.089844-0.13281 0.20312-0.25781 0.21875-0.42969 0-0.015625-0.015625-0.027344-0.011719-0.039063 0-0.015624 0.015625-0.027343 0.015625-0.042968l0.15625-9.1406c0-0.11719-0.089843-0.19141-0.11719-0.30078-0.039063-0.14063-0.0625-0.26953-0.14453-0.37891-0.09375-0.11719-0.21094-0.16797-0.34766-0.24609-0.09375-0.054688-0.14062-0.15234-0.25391-0.17969l-5.2969-1.2656 6.6094 0.96484 0.13281 12.078h-9.3984zm-10.195 260.26c0.078125 0.042969 0.15625 0.042969 0.24219 0.066406 0.035156 0.011719 0.050781 0.054688 0.089844 0.066407l20.004 4.4062c0.085937 0.011719 0.15625 0.023437 0.24219 0.023437h10.707c0.3125 0 0.59375-0.12891 0.80078-0.33984 0.003906-0.011718 0.011718 0 0.015625-0.011718l7.8555-8.3086h0.64453l1.4766 7.3906-2.7812 5.7305-1.1641 1.9375-15.086 3.3164-9.5938-1.0703h-0.011719l-1.7461-0.27344-8.9414-5.7109c-0.078124-0.042968-0.16406-0.011718-0.24609-0.042968-0.078125-0.023438-0.11719-0.11328-0.20703-0.11719l-14.113-1.8711-0.79688-0.20703 0.81641-0.66797c0.10156-0.078124 0.10547-0.20703 0.16406-0.30859 0.085938-0.11719 0.17188-0.21875 0.20312-0.35938 0.027344-0.14062-0.027344-0.27344-0.0625-0.41406-0.023437-0.11719 0.015625-0.24219-0.042969-0.34766l-1.4609-2.5039 2.6445-6.1992h0.375zm33.422 23.73h-12.035l-18.695-1.5273 8.2812-0.62109h19.84c0.12891 0 0.26953-0.035157 0.39844-0.078126l5.3477-2.0547c0.089844-0.035156 0.11719-0.11719 0.18359-0.17188 0.074218-0.042969 0.16797-0.035156 0.23047-0.10156l0.46484-0.49219-0.035156 0.78906-0.47656 1.5742zm-51.73 0-4.75-0.53906 4.1836 0.26172h0.074219c0.054687 0 0.11719 0 0.17188-0.011719l5.8789-0.92969h7.4258zm-9.4023-1.0586-4.2891-2.8125 0.125-4.3516 1.2773-0.97266 0.125 1.9023c0.015625 0.18359 0.12891 0.32031 0.22266 0.46094 0.050782 0.089844 0.054688 0.19531 0.125 0.26172 0.20312 0.19531 0.46875 0.32031 0.77344 0.32031h1.0859l0.32031 2.043c0.039062 0.20703 0.16406 0.37109 0.29688 0.52734 0.039062 0.042968 0.027343 0.10156 0.066406 0.12891l2.9961 2.6875c0.14062 0.11719 0.32031 0.14062 0.48828 0.18359 0.027344 0 0.050781 0.035156 0.078125 0.035156zm7.6367-12.117-1.082 4.9336c-0.035156 0.14062 0.050782 0.26172 0.074219 0.40234s0 0.28516 0.074219 0.40234c0.078125 0.12891 0.21875 0.18359 0.34766 0.27344 0.10547 0.078126 0.16797 0.19531 0.30078 0.24219l1.0977 0.30859c0.10547 0.035156 0.20312 0.042968 0.30859 0.042968 0.039063 0 0.085938 0 0.125-0.011718l6.8359-0.77734h11.535l7.0742 3.293-8.0938 0.60938h-11.324c-0.035156 0-0.054687 0.035156-0.089844 0.042968-0.035156 0-0.054687-0.035156-0.089843-0.023437l-5.8633 0.91797-4.5312-0.28516-2.4141-2.1562-0.41016-2.5938c-0.015626-0.12891-0.125-0.20703-0.18359-0.32031-0.066406-0.11719-0.10156-0.24219-0.20312-0.33984-0.11328-0.089843-0.24609-0.11328-0.38672-0.15234-0.11719-0.042969-0.20312-0.14063-0.33203-0.14063h-0.99609l-0.074219-0.98437 0.78906-1.457 0.94141-1.5195zm8.2266-3.1211 13.598 1.8047 8.9336 5.6992c0.10156 0.066406 0.21094 0.066406 0.32422 0.10156 0.042969 0.011719 0.0625 0.054687 0.10547 0.066406l2.043 0.32031h0.035156c0.003907 0 0.011719 0.011718 0.015626 0.011718l9.7656 1.0938h0.125 0.003907c0.078125 0 0.15234-0.011718 0.23438-0.023437l14.336-3.1484-0.085937 1.9023-2.0664 2.1992-4.9062 1.8828h-14.637l-15.645-8.6875c-0.089844-0.042968-0.18359-0.011718-0.28125-0.035156-0.09375-0.023438-0.15625-0.11328-0.26172-0.11328h-11.809c-0.074219 0-0.11328 0.066406-0.17188 0.078125-0.0625 0.011718-0.125-0.035156-0.19141-0.011719l-2.6484 0.90625 0.67188-2.8438zm-5.8477 5.5156c-0.027344 0.11719 0.042968 0.20703 0.054687 0.32031 0.003907 0.11328-0.054687 0.20703-0.023437 0.30859 0.015625 0.054688 0.066406 0.078125 0.089844 0.11719 0.042968 0.078125 0.09375 0.12891 0.15234 0.19531 0.125 0.15234 0.26172 0.25391 0.44141 0.32031 0.050781 0.023437 0.066406 0.078125 0.11719 0.089844 0.089844 0.023437 0.16797 0.035156 0.25781 0.035156 0.11719 0 0.24219-0.023438 0.35937-0.054688l4.3945-1.5195h11.336l11.859 6.5859h-0.14062l-10.961-5.0977c-0.078125-0.042968-0.15625 0-0.24609-0.011718-0.085938-0.023438-0.13281-0.10156-0.22266-0.10156h-11.809c-0.027344 0-0.042969 0.035156-0.066406 0.035156-0.023438 0-0.039063-0.023437-0.0625-0.023437l-6.5781 0.75781 1.0547-4.8203 0.73828-0.32031zm98.91-34.684c0.023438 0 0.042969 0 0.074219-0.011719l20.082-1.2617h0.003906 0.074219c0.33594-0.023438 0.59766-0.19531 0.78906-0.4375 0.015624-0.023438 0.039062-0.011719 0.050781-0.035156l2.2227-3.1094v14.582l-0.82812 0.50391-0.88672 0.12891c-0.011719 0-0.015625 0.011719-0.027343 0.011719-0.011719 0.011719-0.023438-0.011719-0.035157 0l-1.5742 0.30859c-0.003906 0-0.003906 0.011719-0.011718 0.011719h-0.015625l-19.281 4.3516-6.7812-1.6641-1.0977-0.32031c-0.011718 0-0.015624 0.011719-0.027343 0.011719-0.011719-0.011719-0.011719-0.023438-0.023438-0.023438l-5.2188-1.2695-3.8906-11.789h0.5l15.902 0.003907zm-5.8242 46.082-5.5-3.8516v-1.0312l6.3398 4.832zm6.1758-28.789c0.089844 0.023438 0.17969 0.035156 0.26953 0.035156 0.085937 0 0.16406-0.011718 0.24609-0.035156l17.988-4.0586-0.18359 1.5625-4.2695 0.94531c-0.066406 0.011719-0.09375 0.078125-0.15234 0.11328-0.0625 0.023438-0.12891-0.011719-0.18359 0.023438l-14.023 8.457-1.8555-4.3281c-0.011719-0.023438-0.042969-0.035156-0.0625-0.054688-0.011719-0.023437 0.003906-0.054687-0.011719-0.078125l-2.2227-3.6719zm-4.2734 26.734-3.6289-2.7656h0.30078c0.3125 0 0.59375-0.12891 0.80078-0.33984 0.003907-0.011718 0.011719 0 0.011719-0.011718l2.793-2.9297 0.16797 1.9492c0.003906 0.089843 0.085937 0.14062 0.11328 0.23047 0.042969 0.11719 0.085937 0.21875 0.16406 0.33203 0.10156 0.11719 0.20312 0.19531 0.34766 0.27344 0.074218 0.042969 0.10547 0.12891 0.18359 0.15234l2.1992 0.62109c0.10547 0.035156 0.20703 0.042968 0.3125 0.042968 0.11328 0 0.21875-0.011718 0.33203-0.042968l2.0508-0.63281c0.20703-0.066406 0.33984-0.23047 0.46875-0.37891 0.039063-0.042969 0.11719-0.035156 0.14453-0.089844l0.59766-0.95312 1.5 0.59766c0.13281 0.054688 0.27344 0.089844 0.41406 0.089844h2.3633c0.33203 0 0.60547-0.15234 0.81641-0.37891 0.011719-0.011719 0.035156-0.011719 0.042969-0.023438l1.0547-1.2695 1.6016 0.64453c0.13281 0.054688 0.28125 0.078126 0.42188 0.078126 0.25781 0 0.49219-0.11328 0.6875-0.27344 0.023437-0.011719 0.050781-0.011719 0.074218-0.023438l1.6406-1.5195 1.2031 0.58984c0.003907 0 0.011719 0 0.015626 0.011719h0.003906c0.15234 0.078125 0.3125 0.11328 0.47656 0.11328 0.20703 0 0.41016-0.054687 0.58203-0.16406 0.066406-0.042968 0.10547-0.11719 0.16406-0.17187 0.089844-0.089844 0.19141-0.16406 0.25391-0.28516 0.003906 0 0 0 0-0.011719 0.003906 0 0.011719 0 0.011719-0.011718l2.3633-5.0273c0.023438-0.042969-0.003906-0.089844 0.003906-0.14062 0.023438-0.042969 0.074219-0.078125 0.085938-0.12891l1.7695-9.6875-0.20703 9.1445-4.3516 6.8281-13.379 5.0117zm-2.7617-26.988-0.33203-0.875 0.09375-0.29688 3.0781 5.0859 2.3359 5.4492c0.011718 0.035156 0.042968 0.042969 0.054687 0.078125 0.015625 0.023438 0 0.042969 0.011719 0.066406 0.023437 0.035156 0.074218 0.023438 0.09375 0.042969 0.20703 0.29688 0.51562 0.49219 0.86328 0.49219l-1.707 1.332zm21.738 0.84766 3.625-0.78906 0.25781 2.7422-8.9023 1.5508c-0.054687 0.011719-0.085937 0.066406-0.12891 0.089844-0.054688 0.011719-0.10547-0.011719-0.15625 0.011719l-3.2031 1.5273zm1.9805 13.723-1.8125 3.8711-0.28516-0.14062-0.11719-2.0312c-0.035156-0.59766-0.52734-1.0586-1.1133-1.0586-0.023437 0-0.042969 0-0.066406 0.011719-0.61719 0.035156-1.0859 0.55859-1.0547 1.1797l0.12891 2.1562-1.3008 1.2031-1.0703-0.4375-0.24609-2.4688c-0.0625-0.60937-0.58203-0.98437-1.2266-1.0078-0.61719 0.054688-1.0625 0.60938-1.0078 1.2266l0.26172 2.6836-0.93359 1.1367h-1.6367l-1.3906-0.55859 0.10156-1.2266c0-0.023438-0.015625-0.035157-0.015625-0.042969 0-0.023438 0.023438-0.035156 0.023438-0.042969v-3.7852c0-0.62109-0.50391-1.125-1.1211-1.125-0.61719 0-1.1211 0.50391-1.1211 1.125v3.7617l-0.13281 1.6953-0.73438 1.1484-1.332 0.41406-1.1367-0.33203-0.40234-4.6797 0.13281-3.5 4.5234-3.5352 7.6367-3.6641 8.1797-1.4336zm4.0469-13.32-0.003906 0.27344-0.26172-2.8242 0.054688-0.48047zm-28.676 2.5352 3.7852 9.582-0.14062 3.6133-1.2266 2.3203-2.5586 2.6836h-2.7891l-1.0938-0.76562-0.46875-0.74609 0.27344-2.9844zm14.031-201.4 1.5508 63.164c-0.25781-0.41406-0.72266-0.67578-1.2305-0.54688-0.58984 0.17188-0.92969 0.80078-0.75 1.3984l0.94141 3.1484c0.003906 0.011719 0.023437 0.023437 0.027343 0.035156 0 0.011719-0.011718 0.035156-0.003906 0.042969l1.25 3.2695 7.5039 22.512 1.2656 68.656c0 0.078125 0.074218 0.12891 0.089843 0.19531 0.015625 0.078125-0.027343 0.15234 0 0.21875l4.9492 11.547-2.4688 3.4648-19.555 1.2266h-14.711l0.54688-7.9414c0.003906-0.078125-0.054688-0.12891-0.066406-0.20703-0.003906-0.066406 0.042968-0.12891 0.015625-0.20703l-3.4219-10.891-3.6172-50.902c-0.003906-0.066406-0.066406-0.11328-0.078125-0.17188-0.015625-0.054687 0.023438-0.11328 0-0.17188l-4.9883-12.293-2.1914-18.75c-0.003906-0.042969-0.050782-0.078125-0.0625-0.11719-0.011719-0.035156 0.023437-0.078125 0.003906-0.11719l-17.801-51.023c-0.027344-0.089844-0.11719-0.11719-0.16797-0.19531-0.085938-0.12891-0.15234-0.23047-0.28125-0.32031-0.11719-0.089844-0.23047-0.11328-0.36328-0.14062-0.089844-0.023438-0.14453-0.10156-0.24219-0.10156h-0.054687c-0.0625 0-0.09375 0.054688-0.15234 0.078125-0.054688 0.011719-0.11328-0.035156-0.16406-0.011719-0.089844 0.035157-0.11719 0.11719-0.19531 0.17188-0.12891 0.089843-0.23438 0.15234-0.32031 0.28516-0.085937 0.11719-0.11328 0.24219-0.13281 0.37891-0.023438 0.089844-0.10547 0.16406-0.10156 0.26172l0.63281 13.848 5.0273 156.87-7.5469 7.9727-10.102 0.007812-19.707-4.3398-9.4688-5.5312 2.1406-23.23c0-0.023438-0.023438-0.035157-0.023438-0.054688 0-0.035156 0.027344-0.042969 0.027344-0.066406l-1.5742-77.34c0-0.066406-0.0625-0.10156-0.074219-0.16406-0.003907-0.054688 0.035156-0.10156 0.015625-0.15234l-4.25-13.332 3.3203-4.9102c0.074219-0.10156 0.039063-0.21875 0.074219-0.33984 0.035156-0.11328 0.125-0.20703 0.11719-0.33203l-4.8008-115.95 19.254 9.4141c0.09375 0.042969 0.19531 0.042969 0.29687 0.066406 0.027344 0.011719 0.042969 0.035157 0.074219 0.042969h0.125c0.24609 0 0.46875-0.10156 0.66797-0.25391 0.0625-0.042969 0.09375-0.10156 0.14062-0.16406 0.066406-0.066406 0.15234-0.11719 0.19531-0.20703 0.027343-0.066406-0.003907-0.12891 0.011718-0.18359 0.023438-0.078126 0.089844-0.11328 0.09375-0.18359l2.418-21.992h9.9102l3.2695 15.18c0.015626 0.078125 0.089844 0.11719 0.11719 0.19141 0.027344 0.054688 0 0.11719 0.035156 0.17188l8.1875 12.918c0.015625 0.035156 0.066406 0.023437 0.089844 0.042968 0.027344 0.042969 0.015625 0.10156 0.050781 0.12891 0.21875 0.23047 0.51562 0.33984 0.8125 0.33984 0.20312 0 0.41016-0.054687 0.59375-0.17187 0.039063-0.023438 0.039063-0.066407 0.066407-0.089844 0.035156-0.023438 0.085937-0.023438 0.11328-0.042969l7.0898-6.7812c0.039063-0.042969 0.027344-0.10156 0.0625-0.14062 0.066407-0.078125 0.15234-0.12891 0.19531-0.23047l0.92578-2.1445 5.9922 3.457c0.066406 0.042969 0.13281 0.035157 0.20703 0.054688 0.035156 0.023437 0.050781 0.054687 0.089844 0.066406l10.238 2.5273c0.089844 0.023437 0.17188 0.035156 0.26172 0.035156h0.003906c0.050781 0 0.10156 0 0.14453-0.011719l11.652-1.5742c0.089844-0.011719 0.12891-0.089844 0.20703-0.11719 0.16406-0.054688 0.3125-0.11719 0.42969-0.24219 0.078125-0.089843 0.11328-0.18359 0.15625-0.28516 0.042969-0.10156 0.13281-0.16406 0.15625-0.27344l1.7031-9.9023 1.8984-3.5625 7.0664 3.9258 2.25 10.504z"/>
  <use x="70" y="644" xlink:href="#w"/>
  <use x="90.550781" y="644" xlink:href="#a"/>
  <use x="104.359375" y="644" xlink:href="#b"/>
  <use x="123.347656" y="644" xlink:href="#e"/>
  <use x="142.242188" y="644" xlink:href="#d"/>
  <use x="155.628906" y="644" xlink:href="#b"/>
  <use x="174.617188" y="644" xlink:href="#j"/>
  <use x="204.410156" y="644" xlink:href="#f"/>
  <use x="224.453125" y="644" xlink:href="#i"/>
  <use x="252.453125" y="644" xlink:href="#h"/>
  <use x="270.292969" y="644" xlink:href="#v"/>
  <use x="279.890625" y="644" xlink:href="#g"/>
  <use x="299.824219" y="644" xlink:href="#u"/>
  <use x="309.421875" y="644" xlink:href="#t"/>
  <use x="326.085938" y="644" xlink:href="#e"/>
  <use x="354.730469" y="644" xlink:href="#s"/>
  <use x="365.148438" y="644" xlink:href="#f"/>
  <use x="385.191406" y="644" xlink:href="#c"/>
  <use x="404.429688" y="644" xlink:href="#a"/>
  <use x="418.234375" y="644" xlink:href="#a"/>
  <use x="432.046875" y="644" xlink:href="#e"/>
  <use x="70" y="672" xlink:href="#r"/>
  <use x="82.183594" y="672" xlink:href="#a"/>
  <use x="95.992188" y="672" xlink:href="#c"/>
  <use x="115.226562" y="672" xlink:href="#q"/>
  <use x="154.152344" y="672" xlink:href="#d"/>
  <use x="167.535156" y="672" xlink:href="#p"/>
  <use x="187.46875" y="672" xlink:href="#b"/>
  <use x="216.207031" y="672" xlink:href="#o"/>
  <use x="239.640625" y="672" xlink:href="#c"/>
  <use x="258.878906" y="672" xlink:href="#g"/>
  <use x="278.8125" y="672" xlink:href="#n"/>
  <use x="308.492188" y="672" xlink:href="#m"/>
  <use x="329.015625" y="672" xlink:href="#a"/>
  <use x="342.820312" y="672" xlink:href="#c"/>
  <use x="362.058594" y="672" xlink:href="#l"/>
  <use x="371.65625" y="672" xlink:href="#b"/>
  <use x="390.648438" y="672" xlink:href="#k"/>
  <use x="407.242188" y="672" xlink:href="#d"/>
 </g>
</svg>
